<?xml version="1.0" encoding="UTF-8"?>
<svg version="1.1" xmlns="http://www.w3.org/2000/svg" width="516" height="500">
<path d="M0 0 C170.28 0 340.56 0 516 0 C516 165 516 330 516 500 C345.72 500 175.44 500 0 500 C0 335 0 170 0 0 Z " fill="#000000" transform="translate(0,0)"/>
<path d="M0 0 C13.53412819 10.52654415 22.60504965 24.45586607 25.6640625 41.4609375 C27.66563337 57.63579399 24.98152223 75.15161532 14.97265625 88.46484375 C5.08668451 100.1239591 -5.6912634 110.90297541 -16.49365234 121.70141602 C-18.14251109 123.35327278 -19.79116668 125.00533236 -21.43963623 126.65757751 C-25.88304463 131.10975664 -30.32963147 135.55874769 -34.77710676 140.00686383 C-37.55792378 142.78839436 -40.33802643 145.57063683 -43.11787796 148.35313225 C-52.3220019 157.56600643 -61.52816177 166.77683867 -70.73703842 175.98496223 C-71.23132062 176.47920448 -71.72560283 176.97344673 -72.23486328 177.48266602 C-72.72975449 177.97751635 -73.22464571 178.47236668 -73.73453362 178.98221248 C-81.77890125 187.02617246 -89.81825024 195.07512781 -97.85537891 203.12632001 C-106.12705447 211.41235458 -114.40244799 219.69465981 -122.6817385 227.97308582 C-127.32248695 232.61357924 -131.96166678 237.25561481 -136.59699631 241.90152168 C-140.94778668 246.26197163 -145.30332321 250.61762347 -149.66259003 254.96959877 C-151.26190709 256.5678679 -152.85951316 258.16785123 -154.45528793 259.76965714 C-156.6313255 261.95338677 -158.81341793 264.13088077 -160.99716187 266.30690002 C-161.94457955 267.26203305 -161.94457955 267.26203305 -162.91113698 268.2364617 C-169.6261969 274.89903669 -174.54995249 277.0561567 -184.0065918 277.17358398 C-184.71448349 277.18336777 -185.42237518 277.19315155 -186.15171814 277.20323181 C-188.48914742 277.23308775 -190.82651979 277.25454601 -193.1640625 277.2734375 C-193.96557047 277.28000933 -194.76707844 277.28658115 -195.59287453 277.29335213 C-199.83720765 277.32590579 -204.08151613 277.35036411 -208.32592773 277.36987305 C-211.82662746 277.38766454 -215.32651839 277.42245449 -218.8269043 277.47241211 C-223.06562689 277.53282427 -227.30360159 277.56337694 -231.54273415 277.57304573 C-233.15142339 277.58156681 -234.76009445 277.60030193 -236.368536 277.62978935 C-251.44426574 277.89124938 -251.44426574 277.89124938 -258.235672 272.84144592 C-262.47394576 268.06932823 -263.2821599 263.68716832 -263.32226562 257.43408203 C-263.33073517 256.70478485 -263.33920471 255.97548767 -263.34793091 255.22409058 C-263.37121464 252.82759877 -263.37232512 250.43175233 -263.37109375 248.03515625 C-263.37820098 246.35895535 -263.3859008 244.68275687 -263.39416504 243.00656128 C-263.40759033 239.4979577 -263.40918764 235.98957906 -263.40332031 232.48095703 C-263.39742849 227.99971657 -263.4280026 223.51956112 -263.46843719 219.03853035 C-263.49437389 215.57764948 -263.49718619 212.11702773 -263.49354553 208.65606308 C-263.49523146 207.00474193 -263.50482303 205.35340812 -263.52268982 203.70218277 C-263.54499819 201.38552953 -263.53512055 199.07104472 -263.51757812 196.75439453 C-263.51963257 195.44012482 -263.52168701 194.1258551 -263.52380371 192.77175903 C-262.19766213 184.64813248 -256.39543855 179.02031143 -250.72468567 173.41296387 C-250.01284754 172.69715133 -249.30100941 171.9813388 -248.56760043 171.24383497 C-246.1951141 168.86177154 -243.81211713 166.49051971 -241.42895508 164.11914062 C-239.71969717 162.4074532 -238.01108529 160.69512045 -236.30307007 158.98219299 C-232.15184704 154.82255204 -227.99370163 150.6699128 -223.83218787 146.52057374 C-218.97816036 141.68021454 -214.13182249 136.83218613 -209.28568109 131.98393363 C-200.63218132 123.32724779 -191.97128902 114.6779957 -183.30639648 106.03271484 C-174.91489755 97.66020361 -166.52936502 89.28177428 -158.15014648 80.89697266 C-149.01092529 71.75167994 -139.86857043 62.6095421 -130.72064418 53.47295618 C-129.7431871 52.49670629 -128.76573063 51.52045581 -127.78827477 50.54420471 C-127.30743753 50.06397101 -126.82660029 49.58373732 -126.33119223 49.08895108 C-122.95782718 45.71945028 -119.58658471 42.34783483 -116.21610451 38.97544861 C-111.66964969 34.42663757 -107.11772204 29.88334768 -102.56220627 25.34361076 C-100.89567967 23.68130859 -99.23082143 22.01733181 -97.56780434 20.35151863 C-70.29655691 -6.95860232 -35.92100873 -25.18821743 0 0 Z " fill="#FDFDFD" transform="translate(364.90234375,116.03515625)"/>
<path d="M0 0 C4.19406961 1.92280443 7.07985411 4.79137788 10.296875 8.03125 C10.89050842 8.62296997 11.48414185 9.21468994 12.09576416 9.82434082 C13.34543718 11.07265581 14.59259992 12.32348823 15.83740234 13.57666016 C17.75007952 15.50007997 19.67323119 17.41256099 21.59765625 19.32421875 C22.81053798 20.53842139 24.02279952 21.75324393 25.234375 22.96875 C25.81241882 23.54274536 26.39046265 24.11674072 26.98602295 24.70812988 C31 28.77006566 31 28.77006566 31 31 C31.56203125 31.23460937 32.1240625 31.46921875 32.703125 31.7109375 C35.54635891 33.30663 37.48098127 35.28924543 39.75 37.625 C40.94882812 38.85089844 40.94882812 38.85089844 42.171875 40.1015625 C42.77515625 40.72804687 43.3784375 41.35453125 44 42 C42.38206427 45.93909193 39.67415864 48.7237462 36.77859497 51.75799561 C36.24031724 52.32902708 35.70203951 52.90005856 35.14745033 53.48839402 C33.34048884 55.40173168 31.52623311 57.30797163 29.71142578 59.21386719 C28.4129736 60.58379626 27.1146314 61.95382958 25.81639099 63.32395935 C13.89574941 75.88141816 1.83925692 88.30807042 -10.25457573 100.69857407 C-18.36906317 109.01697653 -26.43765507 117.371274 -34.40332031 125.83251953 C-41.36639179 133.22869879 -48.40653617 140.54076539 -55.54586613 147.76710057 C-59.31350684 151.58582643 -63.03520843 155.43130011 -66.66677475 159.38002777 C-80.01761456 173.84901305 -91.43407101 186.06541422 -112.02526438 186.9966042 C-121.74635451 187.14183957 -131.3777301 186.32440612 -141 185 C-146.4165858 146.47343063 -146.4165858 146.47343063 -135.52661133 131.59362793 C-128.71849853 122.96872273 -120.59841226 115.48447106 -112.52799797 108.0666647 C-108.49613253 104.31437096 -104.59262545 100.43253427 -100.67248535 96.56427002 C-93.26727092 89.29455642 -85.75764363 82.14408819 -78.2010541 75.03221631 C-69.58862919 66.91570446 -61.1043562 58.67024011 -52.62717533 50.41293669 C-35.22123765 33.46401948 -17.66470478 16.67876251 0 0 Z " fill="#030303" transform="translate(276,175)"/>
<path d="M0 0 C1.0527713 -0.00686325 2.1055426 -0.0137265 3.19021606 -0.02079773 C6.66283741 -0.03906695 10.13500702 -0.03522792 13.60766602 -0.02954102 C16.02612963 -0.03410271 18.44459194 -0.03940824 20.86305237 -0.04542542 C25.92942575 -0.05435676 30.99564151 -0.05193294 36.06201172 -0.04199219 C42.5497197 -0.03050214 49.03688343 -0.05071511 55.52451992 -0.07990932 C60.51828967 -0.09826818 65.51192892 -0.09797944 70.50572395 -0.0922718 C72.89748968 -0.09211856 75.28926424 -0.0981658 77.68099785 -0.11056328 C81.02726113 -0.12546499 84.3725179 -0.11480109 87.71875 -0.09765625 C89.19570595 -0.1121582 89.19570595 -0.1121582 90.70249939 -0.12695312 C96.8149009 -0.06148035 100.42397568 0.8248435 105.42407227 4.40405273 C109.90702934 9.35890003 110.72909195 12.33018487 110.63500977 18.86889648 C110.21627102 23.90151589 108.11929719 26.9809329 104.42407227 30.21655273 C100.75786808 32.88982662 98.34078954 33.5276677 93.92765808 33.55122375 C93.0066481 33.55837906 92.08563812 33.56553436 91.13671875 33.57290649 C90.12834961 33.5755954 89.11998047 33.5782843 88.08105469 33.58105469 C86.48551506 33.59091148 86.48551506 33.59091148 84.85774231 33.60096741 C81.33167452 33.620706 77.80564932 33.63236356 74.27954102 33.64233398 C72.47452842 33.64844728 72.47452842 33.64844728 70.63305092 33.65468407 C64.26546017 33.67554599 57.89789098 33.68984789 51.53027344 33.69921875 C44.94939041 33.71029067 38.3688448 33.74469969 31.78808117 33.78439045 C26.73089462 33.8105167 21.67378901 33.818907 16.61654091 33.82250023 C14.19044017 33.82737554 11.76434327 33.83901621 9.33830833 33.85753822 C5.94368996 33.88184654 2.54995193 33.88097952 -0.84472656 33.87402344 C-1.84702301 33.8868335 -2.84931946 33.89964355 -3.88198853 33.9128418 C-9.7780327 33.86879403 -13.05508519 33.27555887 -17.57592773 29.40405273 C-20.89750844 25.79666159 -22.89371194 21.88463254 -23.26342773 16.96655273 C-22.93550777 11.56055791 -20.31003836 7.23036362 -16.57592773 3.40405273 C-11.1308926 -0.13267617 -6.27203224 -0.02861618 0 0 Z " fill="#FEFEFE" transform="translate(324.575927734375,342.595947265625)"/>
<path d="M0 0 C7.33786669 7.54169632 10.6828228 15.00624409 10.61132812 25.50830078 C10.30597931 36.35081613 5.71835222 42.80789364 -1.75 50.3125 C-5.10999018 48.85381246 -7.30203106 47.00381052 -9.87597656 44.41357422 C-10.67650452 43.6128952 -11.47703247 42.81221619 -12.30181885 41.98727417 C-13.15612488 41.12264557 -14.01043091 40.25801697 -14.890625 39.3671875 C-15.77280701 38.4821756 -16.65498901 37.5971637 -17.56390381 36.68533325 C-19.90194543 34.33799869 -22.23555874 31.98643215 -24.56713867 29.63269043 C-26.94996526 27.22936073 -29.33850348 24.83172233 -31.7265625 22.43359375 C-36.40631862 17.73178533 -41.08031867 13.02431336 -45.75 8.3125 C-42.88756624 2.17712534 -36.30026758 -2.88131046 -29.94921875 -5.25 C-18.97116547 -7.43391113 -9.40979642 -5.77419326 0 0 Z " fill="#010101" transform="translate(346.75,143.6875)"/>
</svg>
